<mxfile host="app.diagrams.net" modified="2022-04-08T02:33:50.730Z" agent="5.0 (Macintosh; Intel Mac OS X 10_15_7) AppleWebKit/537.36 (KHTML, like Gecko) Chrome/100.0.4896.75 Safari/537.36" etag="15ErnjujmxMlXoEkVYUi" version="17.4.0" type="github">
  <diagram id="PhYCmYSEU7RuguvKFZsH" name="Page-1">
    <mxGraphModel dx="2066" dy="1154" grid="0" gridSize="10" guides="1" tooltips="1" connect="1" arrows="1" fold="1" page="1" pageScale="1" pageWidth="2339" pageHeight="3300" math="0" shadow="0">
      <root>
        <mxCell id="0" />
        <mxCell id="1" parent="0" />
        <mxCell id="tyAwpt8ZHr0P3HQWV30K-1" style="edgeStyle=orthogonalEdgeStyle;curved=1;rounded=0;orthogonalLoop=1;jettySize=auto;html=1;exitX=0.5;exitY=1;exitDx=0;exitDy=0;entryX=0.5;entryY=1;entryDx=0;entryDy=0;startArrow=none;startFill=0;" parent="1" source="tyAwpt8ZHr0P3HQWV30K-3" target="tyAwpt8ZHr0P3HQWV30K-25" edge="1">
          <mxGeometry relative="1" as="geometry" />
        </mxCell>
        <mxCell id="tyAwpt8ZHr0P3HQWV30K-2" value="2.1 扫码安装" style="edgeLabel;html=1;align=center;verticalAlign=middle;resizable=0;points=[];" parent="tyAwpt8ZHr0P3HQWV30K-1" vertex="1" connectable="0">
          <mxGeometry x="-0.0195" y="-62" relative="1" as="geometry">
            <mxPoint as="offset" />
          </mxGeometry>
        </mxCell>
        <mxCell id="tyAwpt8ZHr0P3HQWV30K-3" value="" style="rounded=0;whiteSpace=wrap;html=1;fillColor=#f5f5f5;strokeColor=#666666;fontColor=#333333;" parent="1" vertex="1">
          <mxGeometry x="913" y="364" width="197" height="307" as="geometry" />
        </mxCell>
        <mxCell id="tyAwpt8ZHr0P3HQWV30K-4" value="2.4 消息推送" style="edgeStyle=orthogonalEdgeStyle;curved=1;rounded=0;orthogonalLoop=1;jettySize=auto;html=1;exitX=0.875;exitY=0.5;exitDx=0;exitDy=0;exitPerimeter=0;entryX=0.16;entryY=0.55;entryDx=0;entryDy=0;entryPerimeter=0;startArrow=none;startFill=0;" parent="1" source="tyAwpt8ZHr0P3HQWV30K-5" target="tyAwpt8ZHr0P3HQWV30K-9" edge="1">
          <mxGeometry relative="1" as="geometry" />
        </mxCell>
        <mxCell id="tyAwpt8ZHr0P3HQWV30K-5" value="推送服务" style="ellipse;shape=cloud;whiteSpace=wrap;html=1;fillColor=#dae8fc;strokeColor=#6c8ebf;" parent="1" vertex="1">
          <mxGeometry x="951" y="191" width="120" height="80" as="geometry" />
        </mxCell>
        <mxCell id="tyAwpt8ZHr0P3HQWV30K-6" value="2.5 消息下发" style="edgeStyle=orthogonalEdgeStyle;curved=1;rounded=0;orthogonalLoop=1;jettySize=auto;html=1;exitX=0.55;exitY=0.95;exitDx=0;exitDy=0;exitPerimeter=0;entryX=1;entryY=0.5;entryDx=0;entryDy=0;startArrow=none;startFill=0;" parent="1" source="tyAwpt8ZHr0P3HQWV30K-9" target="tyAwpt8ZHr0P3HQWV30K-19" edge="1">
          <mxGeometry relative="1" as="geometry">
            <Array as="points">
              <mxPoint x="1548" y="339" />
              <mxPoint x="1276" y="339" />
              <mxPoint x="1276" y="454" />
            </Array>
          </mxGeometry>
        </mxCell>
        <mxCell id="tyAwpt8ZHr0P3HQWV30K-7" style="edgeStyle=orthogonalEdgeStyle;curved=1;rounded=0;orthogonalLoop=1;jettySize=auto;html=1;exitX=0.13;exitY=0.77;exitDx=0;exitDy=0;exitPerimeter=0;entryX=0.5;entryY=0;entryDx=0;entryDy=0;startArrow=none;startFill=0;" parent="1" source="tyAwpt8ZHr0P3HQWV30K-9" target="tyAwpt8ZHr0P3HQWV30K-23" edge="1">
          <mxGeometry relative="1" as="geometry" />
        </mxCell>
        <mxCell id="tyAwpt8ZHr0P3HQWV30K-8" value="设备开机自动建立链接通道" style="edgeLabel;html=1;align=center;verticalAlign=middle;resizable=0;points=[];" parent="tyAwpt8ZHr0P3HQWV30K-7" vertex="1" connectable="0">
          <mxGeometry x="0.1311" y="16" relative="1" as="geometry">
            <mxPoint as="offset" />
          </mxGeometry>
        </mxCell>
        <mxCell id="tyAwpt8ZHr0P3HQWV30K-9" value="EMQ 服务" style="ellipse;shape=cloud;whiteSpace=wrap;html=1;fillColor=#dae8fc;strokeColor=#6c8ebf;" parent="1" vertex="1">
          <mxGeometry x="1482" y="191" width="120" height="80" as="geometry" />
        </mxCell>
        <mxCell id="tyAwpt8ZHr0P3HQWV30K-10" style="edgeStyle=orthogonalEdgeStyle;curved=1;rounded=0;orthogonalLoop=1;jettySize=auto;html=1;exitX=0.875;exitY=0.5;exitDx=0;exitDy=0;exitPerimeter=0;entryX=0.16;entryY=0.55;entryDx=0;entryDy=0;entryPerimeter=0;startArrow=none;startFill=0;" parent="1" source="tyAwpt8ZHr0P3HQWV30K-16" target="tyAwpt8ZHr0P3HQWV30K-28" edge="1">
          <mxGeometry relative="1" as="geometry">
            <Array as="points">
              <mxPoint x="708" y="227" />
              <mxPoint x="708" y="91" />
            </Array>
          </mxGeometry>
        </mxCell>
        <mxCell id="tyAwpt8ZHr0P3HQWV30K-11" value="1.2 构建打包" style="edgeLabel;html=1;align=center;verticalAlign=middle;resizable=0;points=[];" parent="tyAwpt8ZHr0P3HQWV30K-10" vertex="1" connectable="0">
          <mxGeometry x="-0.0361" y="-1" relative="1" as="geometry">
            <mxPoint as="offset" />
          </mxGeometry>
        </mxCell>
        <mxCell id="tyAwpt8ZHr0P3HQWV30K-12" style="edgeStyle=orthogonalEdgeStyle;curved=1;rounded=0;orthogonalLoop=1;jettySize=auto;html=1;exitX=0.875;exitY=0.5;exitDx=0;exitDy=0;exitPerimeter=0;entryX=0.16;entryY=0.55;entryDx=0;entryDy=0;entryPerimeter=0;startArrow=none;startFill=0;" parent="1" source="tyAwpt8ZHr0P3HQWV30K-16" target="tyAwpt8ZHr0P3HQWV30K-5" edge="1">
          <mxGeometry relative="1" as="geometry" />
        </mxCell>
        <mxCell id="tyAwpt8ZHr0P3HQWV30K-13" value="2.3 推送确认设备确认消息" style="edgeLabel;html=1;align=center;verticalAlign=middle;resizable=0;points=[];" parent="tyAwpt8ZHr0P3HQWV30K-12" vertex="1" connectable="0">
          <mxGeometry x="-0.1887" y="-3" relative="1" as="geometry">
            <mxPoint as="offset" />
          </mxGeometry>
        </mxCell>
        <mxCell id="tyAwpt8ZHr0P3HQWV30K-14" style="edgeStyle=orthogonalEdgeStyle;curved=1;rounded=0;orthogonalLoop=1;jettySize=auto;html=1;exitX=0.55;exitY=0.95;exitDx=0;exitDy=0;exitPerimeter=0;entryX=0.625;entryY=0.2;entryDx=0;entryDy=0;entryPerimeter=0;startArrow=none;startFill=0;" parent="1" source="tyAwpt8ZHr0P3HQWV30K-16" target="tyAwpt8ZHr0P3HQWV30K-60" edge="1">
          <mxGeometry relative="1" as="geometry" />
        </mxCell>
        <mxCell id="tyAwpt8ZHr0P3HQWV30K-15" value="1.4 推送构建打包结果&lt;br&gt;2.8 推送设备链接状态" style="edgeLabel;html=1;align=center;verticalAlign=middle;resizable=0;points=[];" parent="tyAwpt8ZHr0P3HQWV30K-14" vertex="1" connectable="0">
          <mxGeometry x="0.0539" y="-1" relative="1" as="geometry">
            <mxPoint as="offset" />
          </mxGeometry>
        </mxCell>
        <mxCell id="tyAwpt8ZHr0P3HQWV30K-16" value="研发流程&lt;br&gt;服务" style="ellipse;shape=cloud;whiteSpace=wrap;html=1;fillColor=#dae8fc;strokeColor=#6c8ebf;" parent="1" vertex="1">
          <mxGeometry x="570" y="187" width="120" height="80" as="geometry" />
        </mxCell>
        <mxCell id="tyAwpt8ZHr0P3HQWV30K-17" style="edgeStyle=orthogonalEdgeStyle;curved=1;rounded=0;orthogonalLoop=1;jettySize=auto;html=1;exitX=0.5;exitY=1;exitDx=0;exitDy=0;entryX=0.5;entryY=0;entryDx=0;entryDy=0;startArrow=none;startFill=0;" parent="1" source="tyAwpt8ZHr0P3HQWV30K-19" target="tyAwpt8ZHr0P3HQWV30K-22" edge="1">
          <mxGeometry relative="1" as="geometry" />
        </mxCell>
        <mxCell id="tyAwpt8ZHr0P3HQWV30K-18" value="2.6 根据指定 topic 进行消息分发" style="edgeLabel;html=1;align=center;verticalAlign=middle;resizable=0;points=[];" parent="tyAwpt8ZHr0P3HQWV30K-17" vertex="1" connectable="0">
          <mxGeometry x="0.0238" relative="1" as="geometry">
            <mxPoint as="offset" />
          </mxGeometry>
        </mxCell>
        <mxCell id="tyAwpt8ZHr0P3HQWV30K-19" value="联云组件 / SDK" style="rounded=0;whiteSpace=wrap;html=1;" parent="1" vertex="1">
          <mxGeometry x="950" y="424" width="120" height="60" as="geometry" />
        </mxCell>
        <mxCell id="tyAwpt8ZHr0P3HQWV30K-20" style="edgeStyle=orthogonalEdgeStyle;curved=1;rounded=0;orthogonalLoop=1;jettySize=auto;html=1;exitX=0;exitY=0.5;exitDx=0;exitDy=0;entryX=0.55;entryY=0.95;entryDx=0;entryDy=0;entryPerimeter=0;startArrow=none;startFill=0;" parent="1" source="tyAwpt8ZHr0P3HQWV30K-22" target="tyAwpt8ZHr0P3HQWV30K-16" edge="1">
          <mxGeometry relative="1" as="geometry" />
        </mxCell>
        <mxCell id="tyAwpt8ZHr0P3HQWV30K-21" value="2.2 启动 APP 上报设备 SN 号&lt;br&gt;2.7 设备链接确认" style="edgeLabel;html=1;align=center;verticalAlign=middle;resizable=0;points=[];" parent="tyAwpt8ZHr0P3HQWV30K-20" vertex="1" connectable="0">
          <mxGeometry x="0.2626" y="-66" relative="1" as="geometry">
            <mxPoint y="1" as="offset" />
          </mxGeometry>
        </mxCell>
        <mxCell id="tyAwpt8ZHr0P3HQWV30K-22" value="调试 APP" style="rounded=0;whiteSpace=wrap;html=1;" parent="1" vertex="1">
          <mxGeometry x="951" y="568" width="118" height="51" as="geometry" />
        </mxCell>
        <mxCell id="tyAwpt8ZHr0P3HQWV30K-23" value="设备" style="text;html=1;strokeColor=none;fillColor=none;align=center;verticalAlign=middle;whiteSpace=wrap;rounded=0;" parent="1" vertex="1">
          <mxGeometry x="991.5" y="344" width="40" height="20" as="geometry" />
        </mxCell>
        <mxCell id="tyAwpt8ZHr0P3HQWV30K-24" value="1. 1 链接设备" style="edgeStyle=orthogonalEdgeStyle;curved=1;rounded=0;orthogonalLoop=1;jettySize=auto;html=1;exitX=1;exitY=0.5;exitDx=0;exitDy=0;entryX=0.16;entryY=0.55;entryDx=0;entryDy=0;entryPerimeter=0;startArrow=none;startFill=0;" parent="1" source="tyAwpt8ZHr0P3HQWV30K-25" target="tyAwpt8ZHr0P3HQWV30K-16" edge="1">
          <mxGeometry relative="1" as="geometry" />
        </mxCell>
        <mxCell id="tyAwpt8ZHr0P3HQWV30K-25" value="IDE" style="ellipse;whiteSpace=wrap;html=1;fillColor=#d5e8d4;strokeColor=#82b366;" parent="1" vertex="1">
          <mxGeometry x="340" y="191" width="120" height="80" as="geometry" />
        </mxCell>
        <mxCell id="tyAwpt8ZHr0P3HQWV30K-26" style="edgeStyle=orthogonalEdgeStyle;curved=1;rounded=0;orthogonalLoop=1;jettySize=auto;html=1;exitX=0.07;exitY=0.4;exitDx=0;exitDy=0;exitPerimeter=0;entryX=0.4;entryY=0.1;entryDx=0;entryDy=0;entryPerimeter=0;startArrow=none;startFill=0;" parent="1" source="tyAwpt8ZHr0P3HQWV30K-28" target="tyAwpt8ZHr0P3HQWV30K-16" edge="1">
          <mxGeometry relative="1" as="geometry" />
        </mxCell>
        <mxCell id="tyAwpt8ZHr0P3HQWV30K-27" value="1.3 构建打包成消息" style="edgeLabel;html=1;align=center;verticalAlign=middle;resizable=0;points=[];" parent="tyAwpt8ZHr0P3HQWV30K-26" vertex="1" connectable="0">
          <mxGeometry x="-0.1081" y="25" relative="1" as="geometry">
            <mxPoint as="offset" />
          </mxGeometry>
        </mxCell>
        <mxCell id="tyAwpt8ZHr0P3HQWV30K-28" value="构建打包服务" style="ellipse;shape=cloud;whiteSpace=wrap;html=1;fillColor=#dae8fc;strokeColor=#6c8ebf;" parent="1" vertex="1">
          <mxGeometry x="786" y="47" width="120" height="80" as="geometry" />
        </mxCell>
        <mxCell id="tyAwpt8ZHr0P3HQWV30K-29" value="" style="rounded=0;whiteSpace=wrap;html=1;fillColor=#f5f5f5;strokeColor=#666666;fontColor=#333333;" parent="1" vertex="1">
          <mxGeometry x="861" y="1126" width="197" height="307" as="geometry" />
        </mxCell>
        <mxCell id="tyAwpt8ZHr0P3HQWV30K-30" value="1.4 消息推送" style="edgeStyle=orthogonalEdgeStyle;curved=1;rounded=0;orthogonalLoop=1;jettySize=auto;html=1;exitX=0.875;exitY=0.5;exitDx=0;exitDy=0;exitPerimeter=0;entryX=0.16;entryY=0.55;entryDx=0;entryDy=0;entryPerimeter=0;startArrow=none;startFill=0;" parent="1" source="tyAwpt8ZHr0P3HQWV30K-31" target="tyAwpt8ZHr0P3HQWV30K-34" edge="1">
          <mxGeometry relative="1" as="geometry" />
        </mxCell>
        <mxCell id="tyAwpt8ZHr0P3HQWV30K-31" value="推送服务" style="ellipse;shape=cloud;whiteSpace=wrap;html=1;fillColor=#dae8fc;strokeColor=#6c8ebf;" parent="1" vertex="1">
          <mxGeometry x="899" y="953" width="120" height="80" as="geometry" />
        </mxCell>
        <mxCell id="tyAwpt8ZHr0P3HQWV30K-32" value="1.5 消息下发" style="edgeStyle=orthogonalEdgeStyle;curved=1;rounded=0;orthogonalLoop=1;jettySize=auto;html=1;exitX=0.55;exitY=0.95;exitDx=0;exitDy=0;exitPerimeter=0;entryX=1;entryY=0.5;entryDx=0;entryDy=0;startArrow=none;startFill=0;" parent="1" source="tyAwpt8ZHr0P3HQWV30K-34" target="tyAwpt8ZHr0P3HQWV30K-45" edge="1">
          <mxGeometry relative="1" as="geometry">
            <Array as="points">
              <mxPoint x="1496" y="1101" />
              <mxPoint x="1224" y="1101" />
              <mxPoint x="1224" y="1216" />
            </Array>
          </mxGeometry>
        </mxCell>
        <mxCell id="tyAwpt8ZHr0P3HQWV30K-33" value="1.9 消费指定 topic 的消息" style="edgeStyle=orthogonalEdgeStyle;curved=1;rounded=0;orthogonalLoop=1;jettySize=auto;html=1;exitX=0.13;exitY=0.77;exitDx=0;exitDy=0;exitPerimeter=0;entryX=0.55;entryY=0.95;entryDx=0;entryDy=0;entryPerimeter=0;startArrow=none;startFill=0;" parent="1" source="tyAwpt8ZHr0P3HQWV30K-34" target="tyAwpt8ZHr0P3HQWV30K-41" edge="1">
          <mxGeometry relative="1" as="geometry">
            <Array as="points">
              <mxPoint x="1446" y="1083" />
              <mxPoint x="584" y="1083" />
            </Array>
          </mxGeometry>
        </mxCell>
        <mxCell id="tyAwpt8ZHr0P3HQWV30K-34" value="EMQ 服务" style="ellipse;shape=cloud;whiteSpace=wrap;html=1;fillColor=#dae8fc;strokeColor=#6c8ebf;" parent="1" vertex="1">
          <mxGeometry x="1430" y="953" width="120" height="80" as="geometry" />
        </mxCell>
        <mxCell id="tyAwpt8ZHr0P3HQWV30K-35" style="edgeStyle=orthogonalEdgeStyle;curved=1;rounded=0;orthogonalLoop=1;jettySize=auto;html=1;exitX=0.875;exitY=0.5;exitDx=0;exitDy=0;exitPerimeter=0;entryX=0.16;entryY=0.55;entryDx=0;entryDy=0;entryPerimeter=0;startArrow=none;startFill=0;" parent="1" source="tyAwpt8ZHr0P3HQWV30K-41" target="tyAwpt8ZHr0P3HQWV30K-51" edge="1">
          <mxGeometry relative="1" as="geometry">
            <Array as="points">
              <mxPoint x="656" y="989" />
              <mxPoint x="656" y="853" />
            </Array>
          </mxGeometry>
        </mxCell>
        <mxCell id="tyAwpt8ZHr0P3HQWV30K-36" value="1.2 构建打包" style="edgeLabel;html=1;align=center;verticalAlign=middle;resizable=0;points=[];" parent="tyAwpt8ZHr0P3HQWV30K-35" vertex="1" connectable="0">
          <mxGeometry x="-0.0361" y="-1" relative="1" as="geometry">
            <mxPoint as="offset" />
          </mxGeometry>
        </mxCell>
        <mxCell id="tyAwpt8ZHr0P3HQWV30K-37" style="edgeStyle=orthogonalEdgeStyle;curved=1;rounded=0;orthogonalLoop=1;jettySize=auto;html=1;exitX=0.875;exitY=0.5;exitDx=0;exitDy=0;exitPerimeter=0;entryX=0.16;entryY=0.55;entryDx=0;entryDy=0;entryPerimeter=0;startArrow=none;startFill=0;" parent="1" source="tyAwpt8ZHr0P3HQWV30K-41" target="tyAwpt8ZHr0P3HQWV30K-31" edge="1">
          <mxGeometry relative="1" as="geometry" />
        </mxCell>
        <mxCell id="tyAwpt8ZHr0P3HQWV30K-38" value="1.3 推送更新内容" style="edgeLabel;html=1;align=center;verticalAlign=middle;resizable=0;points=[];" parent="tyAwpt8ZHr0P3HQWV30K-37" vertex="1" connectable="0">
          <mxGeometry x="-0.1887" y="-3" relative="1" as="geometry">
            <mxPoint as="offset" />
          </mxGeometry>
        </mxCell>
        <mxCell id="tyAwpt8ZHr0P3HQWV30K-39" style="edgeStyle=orthogonalEdgeStyle;curved=1;rounded=0;orthogonalLoop=1;jettySize=auto;html=1;exitX=0.55;exitY=0.95;exitDx=0;exitDy=0;exitPerimeter=0;entryX=0.4;entryY=0.1;entryDx=0;entryDy=0;entryPerimeter=0;startArrow=none;startFill=0;" parent="1" source="tyAwpt8ZHr0P3HQWV30K-41" target="tyAwpt8ZHr0P3HQWV30K-54" edge="1">
          <mxGeometry relative="1" as="geometry" />
        </mxCell>
        <mxCell id="tyAwpt8ZHr0P3HQWV30K-40" value="1.10 推送日志消息" style="edgeLabel;html=1;align=center;verticalAlign=middle;resizable=0;points=[];" parent="tyAwpt8ZHr0P3HQWV30K-39" vertex="1" connectable="0">
          <mxGeometry x="-0.0117" y="3" relative="1" as="geometry">
            <mxPoint as="offset" />
          </mxGeometry>
        </mxCell>
        <mxCell id="tyAwpt8ZHr0P3HQWV30K-41" value="研发流程&lt;br&gt;服务" style="ellipse;shape=cloud;whiteSpace=wrap;html=1;fillColor=#dae8fc;strokeColor=#6c8ebf;" parent="1" vertex="1">
          <mxGeometry x="518" y="949" width="120" height="80" as="geometry" />
        </mxCell>
        <mxCell id="tyAwpt8ZHr0P3HQWV30K-42" value="1.6 根据指定 topic 进行消息分发" style="edgeStyle=orthogonalEdgeStyle;curved=1;rounded=0;orthogonalLoop=1;jettySize=auto;html=1;exitX=0.25;exitY=1;exitDx=0;exitDy=0;entryX=0.25;entryY=0;entryDx=0;entryDy=0;startArrow=none;startFill=0;" parent="1" source="tyAwpt8ZHr0P3HQWV30K-45" target="tyAwpt8ZHr0P3HQWV30K-47" edge="1">
          <mxGeometry x="-0.4083" y="-72" relative="1" as="geometry">
            <mxPoint as="offset" />
          </mxGeometry>
        </mxCell>
        <mxCell id="tyAwpt8ZHr0P3HQWV30K-43" style="edgeStyle=orthogonalEdgeStyle;curved=1;rounded=0;orthogonalLoop=1;jettySize=auto;html=1;exitX=1;exitY=0.75;exitDx=0;exitDy=0;entryX=0.55;entryY=0.95;entryDx=0;entryDy=0;entryPerimeter=0;startArrow=none;startFill=0;" parent="1" source="tyAwpt8ZHr0P3HQWV30K-45" target="tyAwpt8ZHr0P3HQWV30K-34" edge="1">
          <mxGeometry relative="1" as="geometry" />
        </mxCell>
        <mxCell id="tyAwpt8ZHr0P3HQWV30K-44" value="1.8 消息发送" style="edgeLabel;html=1;align=center;verticalAlign=middle;resizable=0;points=[];" parent="tyAwpt8ZHr0P3HQWV30K-43" vertex="1" connectable="0">
          <mxGeometry x="-0.2118" y="23" relative="1" as="geometry">
            <mxPoint as="offset" />
          </mxGeometry>
        </mxCell>
        <mxCell id="tyAwpt8ZHr0P3HQWV30K-45" value="联云组件 / SDK" style="rounded=0;whiteSpace=wrap;html=1;" parent="1" vertex="1">
          <mxGeometry x="898" y="1186" width="120" height="60" as="geometry" />
        </mxCell>
        <mxCell id="tyAwpt8ZHr0P3HQWV30K-46" value="1.7 上报调试日志" style="edgeStyle=orthogonalEdgeStyle;curved=1;rounded=0;orthogonalLoop=1;jettySize=auto;html=1;exitX=0.75;exitY=0;exitDx=0;exitDy=0;entryX=0.75;entryY=1;entryDx=0;entryDy=0;startArrow=none;startFill=0;" parent="1" source="tyAwpt8ZHr0P3HQWV30K-47" target="tyAwpt8ZHr0P3HQWV30K-45" edge="1">
          <mxGeometry relative="1" as="geometry" />
        </mxCell>
        <mxCell id="tyAwpt8ZHr0P3HQWV30K-47" value="调试 APP" style="rounded=0;whiteSpace=wrap;html=1;" parent="1" vertex="1">
          <mxGeometry x="899" y="1330" width="118" height="51" as="geometry" />
        </mxCell>
        <mxCell id="tyAwpt8ZHr0P3HQWV30K-48" value="设备" style="text;html=1;strokeColor=none;fillColor=none;align=center;verticalAlign=middle;whiteSpace=wrap;rounded=0;" parent="1" vertex="1">
          <mxGeometry x="939.5" y="1106" width="40" height="20" as="geometry" />
        </mxCell>
        <mxCell id="tyAwpt8ZHr0P3HQWV30K-49" value="1. 1 同步更新" style="edgeStyle=orthogonalEdgeStyle;curved=1;rounded=0;orthogonalLoop=1;jettySize=auto;html=1;exitX=1;exitY=0.5;exitDx=0;exitDy=0;entryX=0.16;entryY=0.55;entryDx=0;entryDy=0;entryPerimeter=0;startArrow=none;startFill=0;" parent="1" source="tyAwpt8ZHr0P3HQWV30K-50" target="tyAwpt8ZHr0P3HQWV30K-41" edge="1">
          <mxGeometry relative="1" as="geometry" />
        </mxCell>
        <mxCell id="tyAwpt8ZHr0P3HQWV30K-50" value="IDE" style="ellipse;whiteSpace=wrap;html=1;fillColor=#d5e8d4;strokeColor=#82b366;" parent="1" vertex="1">
          <mxGeometry x="288" y="953" width="120" height="80" as="geometry" />
        </mxCell>
        <mxCell id="tyAwpt8ZHr0P3HQWV30K-51" value="构建打包服务" style="ellipse;shape=cloud;whiteSpace=wrap;html=1;fillColor=#dae8fc;strokeColor=#6c8ebf;" parent="1" vertex="1">
          <mxGeometry x="734" y="809" width="120" height="80" as="geometry" />
        </mxCell>
        <mxCell id="tyAwpt8ZHr0P3HQWV30K-52" style="edgeStyle=orthogonalEdgeStyle;curved=1;rounded=0;orthogonalLoop=1;jettySize=auto;html=1;exitX=0.07;exitY=0.4;exitDx=0;exitDy=0;exitPerimeter=0;entryX=0.5;entryY=1;entryDx=0;entryDy=0;startArrow=none;startFill=0;" parent="1" source="tyAwpt8ZHr0P3HQWV30K-54" target="tyAwpt8ZHr0P3HQWV30K-50" edge="1">
          <mxGeometry relative="1" as="geometry" />
        </mxCell>
        <mxCell id="tyAwpt8ZHr0P3HQWV30K-53" value="1.11 推送日志消息" style="edgeLabel;html=1;align=center;verticalAlign=middle;resizable=0;points=[];" parent="tyAwpt8ZHr0P3HQWV30K-52" vertex="1" connectable="0">
          <mxGeometry x="0.268" y="-16" relative="1" as="geometry">
            <mxPoint as="offset" />
          </mxGeometry>
        </mxCell>
        <mxCell id="tyAwpt8ZHr0P3HQWV30K-54" value="websocket 服务" style="ellipse;shape=cloud;whiteSpace=wrap;html=1;fillColor=#dae8fc;strokeColor=#6c8ebf;" parent="1" vertex="1">
          <mxGeometry x="483" y="1221" width="120" height="80" as="geometry" />
        </mxCell>
        <mxCell id="tyAwpt8ZHr0P3HQWV30K-55" value="备注：第三方设备 6 月份暂不支持，后续切换到链接平台之后，第三方设备需要集成联云 SDK" style="shape=note;size=20;whiteSpace=wrap;html=1;fillColor=#fff2cc;strokeColor=#d6b656;" parent="1" vertex="1">
          <mxGeometry x="1184" y="506" width="373" height="108" as="geometry" />
        </mxCell>
        <mxCell id="tyAwpt8ZHr0P3HQWV30K-56" value="&lt;h2&gt;&lt;b&gt;设备链接流程&lt;/b&gt;&lt;/h2&gt;" style="text;html=1;strokeColor=none;fillColor=none;align=center;verticalAlign=middle;whiteSpace=wrap;rounded=0;" parent="1" vertex="1">
          <mxGeometry x="939.5" y="26" width="123" height="21" as="geometry" />
        </mxCell>
        <mxCell id="tyAwpt8ZHr0P3HQWV30K-57" value="&lt;h2&gt;&lt;b&gt;页面同步更新流程&lt;/b&gt;&lt;/h2&gt;" style="text;html=1;strokeColor=none;fillColor=none;align=center;verticalAlign=middle;whiteSpace=wrap;rounded=0;" parent="1" vertex="1">
          <mxGeometry x="861" y="773" width="153" height="20" as="geometry" />
        </mxCell>
        <mxCell id="tyAwpt8ZHr0P3HQWV30K-58" style="edgeStyle=orthogonalEdgeStyle;curved=1;rounded=0;orthogonalLoop=1;jettySize=auto;html=1;exitX=0.4;exitY=0.1;exitDx=0;exitDy=0;exitPerimeter=0;entryX=1;entryY=1;entryDx=0;entryDy=0;startArrow=none;startFill=0;" parent="1" source="tyAwpt8ZHr0P3HQWV30K-60" target="tyAwpt8ZHr0P3HQWV30K-25" edge="1">
          <mxGeometry relative="1" as="geometry" />
        </mxCell>
        <mxCell id="tyAwpt8ZHr0P3HQWV30K-59" value="1.5 推送构建打包结果&lt;br&gt;2.9 推送设备链接状态" style="edgeLabel;html=1;align=center;verticalAlign=middle;resizable=0;points=[];" parent="tyAwpt8ZHr0P3HQWV30K-58" vertex="1" connectable="0">
          <mxGeometry x="0.541" y="-9" relative="1" as="geometry">
            <mxPoint as="offset" />
          </mxGeometry>
        </mxCell>
        <mxCell id="tyAwpt8ZHr0P3HQWV30K-60" value="websocket 服务" style="ellipse;shape=cloud;whiteSpace=wrap;html=1;fillColor=#dae8fc;strokeColor=#6c8ebf;" parent="1" vertex="1">
          <mxGeometry x="460" y="350" width="120" height="80" as="geometry" />
        </mxCell>
        <mxCell id="tyAwpt8ZHr0P3HQWV30K-61" value="" style="rounded=0;whiteSpace=wrap;html=1;fillColor=#f5f5f5;strokeColor=#666666;fontColor=#333333;" parent="1" vertex="1">
          <mxGeometry x="823" y="1799" width="197" height="307" as="geometry" />
        </mxCell>
        <mxCell id="tyAwpt8ZHr0P3HQWV30K-62" value="1.5 消息推送" style="edgeStyle=orthogonalEdgeStyle;curved=1;rounded=0;orthogonalLoop=1;jettySize=auto;html=1;exitX=0.875;exitY=0.5;exitDx=0;exitDy=0;exitPerimeter=0;entryX=0.16;entryY=0.55;entryDx=0;entryDy=0;entryPerimeter=0;startArrow=none;startFill=0;" parent="1" source="tyAwpt8ZHr0P3HQWV30K-63" target="tyAwpt8ZHr0P3HQWV30K-66" edge="1">
          <mxGeometry relative="1" as="geometry" />
        </mxCell>
        <mxCell id="tyAwpt8ZHr0P3HQWV30K-63" value="推送服务" style="ellipse;shape=cloud;whiteSpace=wrap;html=1;fillColor=#dae8fc;strokeColor=#6c8ebf;" parent="1" vertex="1">
          <mxGeometry x="861" y="1626" width="120" height="80" as="geometry" />
        </mxCell>
        <mxCell id="tyAwpt8ZHr0P3HQWV30K-64" value="1.6 debugToken下发" style="edgeStyle=orthogonalEdgeStyle;curved=1;rounded=0;orthogonalLoop=1;jettySize=auto;html=1;exitX=0.55;exitY=0.95;exitDx=0;exitDy=0;exitPerimeter=0;entryX=1;entryY=0.5;entryDx=0;entryDy=0;startArrow=none;startFill=0;" parent="1" source="tyAwpt8ZHr0P3HQWV30K-66" target="tyAwpt8ZHr0P3HQWV30K-73" edge="1">
          <mxGeometry relative="1" as="geometry">
            <Array as="points">
              <mxPoint x="1458" y="1774" />
              <mxPoint x="1186" y="1774" />
              <mxPoint x="1186" y="1889" />
            </Array>
          </mxGeometry>
        </mxCell>
        <mxCell id="tyAwpt8ZHr0P3HQWV30K-65" value="1.3 消费指定 topic 的消息" style="edgeStyle=orthogonalEdgeStyle;curved=1;rounded=0;orthogonalLoop=1;jettySize=auto;html=1;exitX=0.13;exitY=0.77;exitDx=0;exitDy=0;exitPerimeter=0;entryX=0.55;entryY=0.95;entryDx=0;entryDy=0;entryPerimeter=0;startArrow=none;startFill=0;" parent="1" source="tyAwpt8ZHr0P3HQWV30K-66" target="tyAwpt8ZHr0P3HQWV30K-69" edge="1">
          <mxGeometry relative="1" as="geometry">
            <Array as="points">
              <mxPoint x="1408" y="1756" />
              <mxPoint x="546" y="1756" />
            </Array>
          </mxGeometry>
        </mxCell>
        <mxCell id="tyAwpt8ZHr0P3HQWV30K-66" value="EMQ 服务" style="ellipse;shape=cloud;whiteSpace=wrap;html=1;fillColor=#dae8fc;strokeColor=#6c8ebf;" parent="1" vertex="1">
          <mxGeometry x="1392" y="1626" width="120" height="80" as="geometry" />
        </mxCell>
        <mxCell id="tyAwpt8ZHr0P3HQWV30K-67" style="edgeStyle=orthogonalEdgeStyle;curved=1;rounded=0;orthogonalLoop=1;jettySize=auto;html=1;exitX=0.875;exitY=0.5;exitDx=0;exitDy=0;exitPerimeter=0;entryX=0.16;entryY=0.55;entryDx=0;entryDy=0;entryPerimeter=0;startArrow=none;startFill=0;" parent="1" source="tyAwpt8ZHr0P3HQWV30K-69" target="tyAwpt8ZHr0P3HQWV30K-63" edge="1">
          <mxGeometry relative="1" as="geometry" />
        </mxCell>
        <mxCell id="tyAwpt8ZHr0P3HQWV30K-68" value="1.4 收到心跳后每 30 秒推送 debugToken" style="edgeLabel;html=1;align=center;verticalAlign=middle;resizable=0;points=[];" parent="tyAwpt8ZHr0P3HQWV30K-67" vertex="1" connectable="0">
          <mxGeometry x="-0.1887" y="-3" relative="1" as="geometry">
            <mxPoint as="offset" />
          </mxGeometry>
        </mxCell>
        <mxCell id="tyAwpt8ZHr0P3HQWV30K-69" value="研发流程&lt;br&gt;服务" style="ellipse;shape=cloud;whiteSpace=wrap;html=1;fillColor=#dae8fc;strokeColor=#6c8ebf;" parent="1" vertex="1">
          <mxGeometry x="480" y="1622" width="120" height="80" as="geometry" />
        </mxCell>
        <mxCell id="tyAwpt8ZHr0P3HQWV30K-70" value="1.7 根据指定 topic 进行消息分发" style="edgeStyle=orthogonalEdgeStyle;curved=1;rounded=0;orthogonalLoop=1;jettySize=auto;html=1;exitX=0.25;exitY=1;exitDx=0;exitDy=0;entryX=0.25;entryY=0;entryDx=0;entryDy=0;startArrow=none;startFill=0;" parent="1" source="tyAwpt8ZHr0P3HQWV30K-73" target="tyAwpt8ZHr0P3HQWV30K-75" edge="1">
          <mxGeometry x="-0.4083" y="-72" relative="1" as="geometry">
            <mxPoint as="offset" />
          </mxGeometry>
        </mxCell>
        <mxCell id="tyAwpt8ZHr0P3HQWV30K-71" style="edgeStyle=orthogonalEdgeStyle;curved=1;rounded=0;orthogonalLoop=1;jettySize=auto;html=1;exitX=1;exitY=0.75;exitDx=0;exitDy=0;entryX=0.55;entryY=0.95;entryDx=0;entryDy=0;entryPerimeter=0;startArrow=none;startFill=0;" parent="1" source="tyAwpt8ZHr0P3HQWV30K-73" target="tyAwpt8ZHr0P3HQWV30K-66" edge="1">
          <mxGeometry relative="1" as="geometry" />
        </mxCell>
        <mxCell id="tyAwpt8ZHr0P3HQWV30K-72" value="1.2 消息发送" style="edgeLabel;html=1;align=center;verticalAlign=middle;resizable=0;points=[];" parent="tyAwpt8ZHr0P3HQWV30K-71" vertex="1" connectable="0">
          <mxGeometry x="-0.2118" y="23" relative="1" as="geometry">
            <mxPoint as="offset" />
          </mxGeometry>
        </mxCell>
        <mxCell id="tyAwpt8ZHr0P3HQWV30K-73" value="联云组件 / SDK" style="rounded=0;whiteSpace=wrap;html=1;" parent="1" vertex="1">
          <mxGeometry x="860" y="1859" width="120" height="60" as="geometry" />
        </mxCell>
        <mxCell id="tyAwpt8ZHr0P3HQWV30K-74" value="1.1 心跳上报" style="edgeStyle=orthogonalEdgeStyle;curved=1;rounded=0;orthogonalLoop=1;jettySize=auto;html=1;exitX=0.75;exitY=0;exitDx=0;exitDy=0;entryX=0.75;entryY=1;entryDx=0;entryDy=0;startArrow=none;startFill=0;" parent="1" source="tyAwpt8ZHr0P3HQWV30K-75" target="tyAwpt8ZHr0P3HQWV30K-73" edge="1">
          <mxGeometry relative="1" as="geometry" />
        </mxCell>
        <mxCell id="tyAwpt8ZHr0P3HQWV30K-75" value="调试 APP" style="rounded=0;whiteSpace=wrap;html=1;" parent="1" vertex="1">
          <mxGeometry x="861" y="2003" width="118" height="51" as="geometry" />
        </mxCell>
        <mxCell id="tyAwpt8ZHr0P3HQWV30K-76" value="设备" style="text;html=1;strokeColor=none;fillColor=none;align=center;verticalAlign=middle;whiteSpace=wrap;rounded=0;" parent="1" vertex="1">
          <mxGeometry x="901.5" y="1779" width="40" height="20" as="geometry" />
        </mxCell>
        <mxCell id="tyAwpt8ZHr0P3HQWV30K-77" value="&lt;h2&gt;&lt;b&gt;心跳检测 &amp;amp; token 更新&lt;/b&gt;&lt;/h2&gt;" style="text;html=1;strokeColor=none;fillColor=none;align=center;verticalAlign=middle;whiteSpace=wrap;rounded=0;" parent="1" vertex="1">
          <mxGeometry x="868" y="1556" width="226" height="16" as="geometry" />
        </mxCell>
      </root>
    </mxGraphModel>
  </diagram>
</mxfile>
